<?xml version="1.0" encoding="utf-8"?>
<!-- Generator: Adobe Illustrator 24.1.3, SVG Export Plug-In . SVG Version: 6.00 Build 0)  -->
<svg version="1.1" id="Layer_1" xmlns="http://www.w3.org/2000/svg" xmlns:xlink="http://www.w3.org/1999/xlink" x="0px" y="0px"
	 viewBox="0 0 194.5 43.1" style="enable-background:new 0 0 194.5 43.1;" xml:space="preserve">
<style type="text/css">
	.st0{fill-rule:evenodd;clip-rule:evenodd;}
	.st1{fill-rule:evenodd;clip-rule:evenodd;fill:#D1202B;}
	.st2{fill:#231F20;}
</style>
<g>
	<path class="st0" d="M18.3,43.1c-5.5,0-11,0-16.5,0c-1.2,0-1.9-0.3-1.7-1.7C1.3,33.2,2.5,25,3.7,16.8c0.2-1.6,0.9-2,2.3-1.4
		c1.5,0.7,3,0.7,4.5,0c0.7-0.3,1.6-0.4,2.4-0.4c6,0,11.9,0,17.9,0c1.5,0,2.2,0.4,2.4,2c1.1,8.1,2.4,16.3,3.6,24.4
		c0.2,1.4-0.6,1.7-1.7,1.7C29.4,43,23.8,43.1,18.3,43.1z M34.5,41c0-0.4,0-0.6,0-0.9c-1.1-7.3-2.1-14.7-3.2-22
		C31.1,17,30.5,17,29.7,17c-2.8,0-5.7,0-8.5,0c-2.8,0-5.5,0-8.5,0c-0.2,8.1-0.5,16-0.7,23.9C19.5,41,26.9,41,34.5,41z M10.6,17.8
		c-0.2-0.1-0.5-0.3-0.7-0.4c-0.4,0.6-1.2,1.2-1.3,1.9C8,24.7,7.5,30,6.9,35.4c-0.2,2,0.9,3.6,3,4.3C10.2,32.4,10.4,25.1,10.6,17.8z
		 M2.3,39.4c0.2,0.1,0.4,0.2,0.5,0.3c0.9-1.1,2.4-2.2,2.5-3.4c0.8-5.6,1.2-11.3,1.9-16.9c0.1-1.3-0.3-1.9-1.8-1.7
		C4.5,24.9,3.4,32.2,2.3,39.4z M6.1,38.4c-0.9,0.9-1.8,1.6-2.7,2.5c1.9,0,3.4,0,5.3,0c-0.6-0.6-0.9-1-1.3-1.4
		C7,39.2,6.5,38.8,6.1,38.4z"/>
	<path class="st0" d="M13.4,13.2c-0.9-1.1-1.7-2.2-2.9-3.6c-0.5,1.7-0.9,2.8-1.2,4c-0.2,0-0.3,0-0.5-0.1c0.2-1.1,0.2-2.2,0.6-3.3
		c0.3-1,0.4-1.7-0.4-2.5C8.5,7.3,8.2,6.6,8,6c-1.1-2.9,0.2-5.1,3.2-4.6c3.7,0.6,7.2-0.2,10.7-1.1c0.3-0.1,0.6-0.1,0.9-0.1
		c5.5-0.6,7.7,2.1,5.8,7.3c-0.6,1.7-1.1,3.3-0.4,5.1c0.1,0.3,0,0.8-0.3,1.3c-0.3-0.7-0.6-1.4-1.1-2.4c-0.4,1-0.6,1.7-0.9,2.4
		c-0.1,0-0.3,0-0.4,0c0.1-0.9,0.3-1.7,0.3-2.6c0-0.7,0-1.5-0.4-2c-2.2-2.8-5.3-4.3-8.6-5.1c-0.4-0.1-0.9,0.1-1.3,0.3
		c-0.9,0.7-1.8,1.4-2.7,2.2c-1.3,1.1-1.8,2.2-0.3,3.7c0.7,0.7,0.9,2,1.3,3C13.7,13.1,13.5,13.2,13.4,13.2z M27,8.3
		c0.3-0.7,0.8-1.5,1-2.4c0.6-2.3-0.3-3.7-2.6-3.8c-1.9-0.1-3.8,0.2-5.9,0.3C22.2,4.4,24.6,6.3,27,8.3z M13.5,3.4
		C11.7,3,9.9,2.6,8.7,3.9c-0.3,0.3,1,2.1,1.6,3.2c0,0.1,0.2,0,0.2,0C11.5,5.9,12.4,4.8,13.5,3.4z"/>
	<path class="st1" d="M23,35.2c-1.7-1.3-3.4-2.6-5.1-4c-0.9-0.7-1.7-1.6-2.3-2.6c-1-1.8-0.3-4,1.4-5c1.7-1.1,3.5-0.7,5.3,1.4
		c2-2.3,4.1-2.5,6-0.7c2,1.9,1.9,4.4-0.2,6.4C26.5,32.1,24.8,33.6,23,35.2z"/>
	<g>
		<path class="st2" d="M55.8,5c0-0.5-0.1-1.1-0.3-1.6c-0.2-0.5-0.6-1-1-1.4c-0.4-0.4-1-0.7-1.7-0.9c-0.7-0.2-1.4-0.4-2.3-0.4
			c-0.7,0-1.3,0.1-1.9,0.3C48,1.3,47.4,1.6,46.9,2c-0.5,0.4-1,0.9-1.4,1.4c-0.4,0.6-0.7,1.2-1,1.8c-0.3,0.7-0.5,1.4-0.7,2.2
			c-0.2,0.8-0.2,1.6-0.2,2.4c0,0.5,0,1,0.1,1.5c0,0.5,0.1,1.1,0.2,1.6c0.1,0.5,0.3,1,0.4,1.5c0.2,0.5,0.4,0.9,0.6,1.3
			c0.3,0.4,0.5,0.7,0.9,0.9c0.3,0.2,0.7,0.3,1.1,0.3c0.4,0,0.8-0.1,1.1-0.2c0.3-0.1,0.6-0.3,0.9-0.6c0.3-0.3,0.5-0.5,0.7-0.9
			c0.2-0.3,0.4-0.7,0.5-1.1c0.1-0.4,0.3-0.8,0.3-1.2c0.1-0.4,0.1-0.8,0.1-1.1c0,0,0-0.1,0-0.2c0-0.1,0-0.2,0-0.3c0-0.1,0-0.2,0-0.4
			c0-0.1,0-0.3,0-0.4c0-0.3,0-0.7,0-1.1c0.8-0.1,1.5-0.3,2.2-0.7c0.6-0.3,1.1-0.7,1.5-1.1C55,7.5,55.3,7,55.5,6.5
			C55.7,6,55.8,5.5,55.8,5z M53.7,6.1c-0.1,0.3-0.3,0.5-0.5,0.8c-0.2,0.2-0.5,0.4-0.9,0.6c-0.4,0.2-0.8,0.3-1.3,0.4L51,7.2l0.5-2
			c0,0,0,0,0-0.1c0,0,0,0,0-0.1c0-0.1,0-0.2-0.1-0.3c-0.1-0.1-0.1-0.2-0.2-0.2c-0.1,0-0.2-0.1-0.3-0.1c-0.1,0-0.2,0-0.3,0
			c-0.3,0-0.6,0.1-0.8,0.2c-0.2,0.2-0.4,0.4-0.5,0.6c-0.1,0.2-0.2,0.5-0.3,0.8C49,6.3,49,6.6,48.9,6.8c0,0.3,0,0.5,0,0.7
			c0,0.2,0,0.3,0,0.4c-0.1,0-0.2-0.1-0.3-0.1c-0.1,0-0.2-0.1-0.4-0.2c-0.1-0.1-0.3-0.1-0.5-0.2c-0.1,0-0.1-0.1-0.2-0.1
			c0,0-0.1,0-0.1,0c-0.1,0-0.1,0-0.2,0.1c0,0-0.1,0.1-0.1,0.2c0,0.1,0,0.2,0,0.2c0,0.1,0,0.2,0,0.3c0,0.2,0,0.3,0.1,0.5
			c0,0.1,0.1,0.3,0.2,0.4c0.1,0.1,0.3,0.2,0.6,0.4c0.2,0.1,0.6,0.3,1,0.4v0.4c0,0.2,0,0.5,0,0.9c0,0.3,0,0.7-0.1,1.1
			c0,0.4-0.1,0.8-0.2,1.1c-0.1,0.4-0.2,0.7-0.3,1c-0.1,0.3-0.3,0.5-0.5,0.7c-0.2,0.2-0.4,0.3-0.7,0.3c-0.3,0-0.5-0.1-0.6-0.3
			c-0.2-0.2-0.3-0.5-0.4-0.8c-0.1-0.3-0.2-0.7-0.3-1.1c-0.1-0.4-0.1-0.8-0.1-1.3c0-0.4,0-0.8,0-1.2c0-0.4,0-0.7,0-0.9
			c0-0.5,0-1.1,0.1-1.6c0.1-0.6,0.2-1.1,0.4-1.6c0.2-0.5,0.4-1,0.6-1.5c0.2-0.5,0.5-0.9,0.9-1.2c0.3-0.3,0.7-0.6,1.1-0.8
			s0.9-0.3,1.4-0.3c0.7,0,1.3,0.1,1.8,0.2c0.5,0.2,0.8,0.4,1.1,0.6c0.3,0.3,0.5,0.5,0.6,0.8c0.1,0.3,0.2,0.6,0.2,0.9
			C53.9,5.5,53.9,5.8,53.7,6.1z"/>
		<path class="st2" d="M103.1,12.1c-0.2,0.1-0.5,0.3-0.7,0.4c-0.2,0.1-0.5,0.2-0.7,0.3c-0.2,0.1-0.4,0.2-0.6,0.3c0-0.3,0-0.7,0-1
			c0-0.3,0-0.6,0-0.8c0-0.2-0.1-0.4-0.1-0.5c0-0.1-0.1-0.3-0.1-0.4c0-0.1-0.1-0.3-0.1-0.4c0-0.1,0-0.3,0-0.4c0-0.1,0.1-0.1,0.2-0.3
			c0.1-0.1,0.2-0.2,0.3-0.4c0.1-0.1,0.2-0.3,0.3-0.4c0.1-0.2,0.1-0.3,0.1-0.4c0-0.1,0-0.1,0-0.2c0-0.1,0-0.2-0.1-0.2
			c-0.1-0.1-0.2-0.1-0.3-0.2c-0.1-0.1-0.3-0.1-0.6-0.1c-0.2,0-0.3,0-0.4,0.1c-0.1,0-0.2,0.1-0.3,0.2c-0.1,0.1-0.2,0.2-0.3,0.2
			c-0.1,0.1-0.2,0.2-0.2,0.3c-0.3,0.4-0.6,0.8-0.8,1.1c-0.2,0.3-0.4,0.5-0.5,0.7c-0.1,0.2-0.3,0.4-0.4,0.5c-0.1,0.1-0.3,0.3-0.4,0.6
			c-0.1,0.2-0.3,0.3-0.4,0.5v0c-0.2,0.2-0.3,0.3-0.5,0.5c-0.2,0.2-0.4,0.3-0.6,0.5c-0.2,0.1-0.4,0.3-0.6,0.4
			c-0.2,0.1-0.4,0.2-0.6,0.3c-0.2,0.1-0.4,0.2-0.5,0.2c-0.2,0.1-0.3,0.1-0.4,0.1c-0.2,0-0.3,0-0.5-0.1c-0.1-0.1-0.3-0.1-0.4-0.3
			c-0.1-0.1-0.2-0.3-0.2-0.5c-0.1-0.2-0.1-0.4-0.1-0.7c0-0.1,0-0.2,0-0.4c0-0.1,0-0.3,0-0.4c0-0.1,0-0.3,0-0.4c0-0.1,0-0.3,0-0.4
			c0-0.3,0-0.6,0.1-1c0.1-0.2,0.3-0.3,0.4-0.5c0.2-0.2,0.3-0.4,0.5-0.6h3c0.1,0,0.2-0.1,0.3-0.2c0.1-0.1,0.2-0.3,0.2-0.5
			c0-0.2,0-0.3-0.1-0.4c0-0.1-0.1-0.2-0.2-0.2c-0.1,0-0.2,0-0.3,0c-0.1,0-0.3,0-0.4,0c-0.2,0-0.3,0-0.5,0c-0.2,0-0.3,0-0.5,0
			s-0.3,0-0.4,0c-0.1,0-0.2,0-0.2,0c0.2-0.3,0.4-0.6,0.5-0.9c0.2-0.3,0.3-0.6,0.4-0.9c0.1-0.3,0.2-0.6,0.3-0.9
			c0.1-0.3,0.1-0.5,0.1-0.8c0-0.3,0-0.6-0.1-0.9c-0.1-0.3-0.2-0.5-0.3-0.7c-0.1-0.2-0.3-0.4-0.5-0.5C94.6,1.1,94.4,1,94.2,1
			c-0.3,0-0.7,0.2-1,0.5c-0.3,0.3-0.6,0.7-0.9,1.2c-0.3,0.5-0.5,1.1-0.7,1.8c-0.2,0.7-0.4,1.3-0.5,2c-0.1,0-0.1,0-0.3,0
			c-0.1,0-0.3,0-0.5,0c-0.2,0-0.4,0-0.6,0c-0.2,0-0.4,0-0.5,0c-0.2,0-0.3,0.1-0.4,0.1c-0.1,0-0.2,0.1-0.2,0.2c0,0.1,0,0.1,0,0.2
			c0,0.1,0,0.1,0.1,0.2c0,0.1,0.1,0.1,0.1,0.2c0.1,0,0.2,0.1,0.3,0.1c0.3,0,0.5,0.1,0.7,0.1c0.1,0,0.3,0,0.4,0.1
			c0.1,0,0.2,0,0.3,0.1c0.1,0,0.2,0,0.4,0.1c0,0.4-0.1,0.7-0.1,1.1c0,0.4,0,0.7,0,1c0,0.6,0,1.1,0.1,1.5l-0.1-0.2
			c-0.2,0.3-0.4,0.5-0.7,0.8c-0.3,0.3-0.6,0.5-0.9,0.8s-0.6,0.4-0.9,0.6c-0.3,0.2-0.6,0.2-0.8,0.2c-0.3,0-0.5-0.1-0.6-0.2
			c-0.2-0.1-0.3-0.3-0.4-0.4c-0.1-0.2-0.2-0.4-0.2-0.6c0-0.2-0.1-0.4-0.1-0.6c0-0.1,0-0.3,0-0.5c0-0.2,0-0.4,0.1-0.6
			c0-0.2,0.1-0.5,0.2-0.8c0.1-0.3,0.2-0.5,0.3-0.7S86.9,9,87,8.9c0.2-0.1,0.3-0.2,0.5-0.2c0.1,0,0.1,0,0.2,0.1c0,0.1,0,0.2,0,0.3
			c0,0.1,0,0.2,0,0.3c-0.1,0.3-0.1,0.5-0.1,0.6c0,0.2,0,0.3,0.1,0.5c0.1,0.1,0.2,0.2,0.5,0.2c0.2,0,0.3,0,0.5-0.1
			c0.1-0.1,0.3-0.2,0.4-0.5c0.1-0.2,0.2-0.4,0.3-0.6c0.1-0.2,0.1-0.3,0.1-0.5c0-0.3-0.1-0.5-0.2-0.7c-0.1-0.2-0.3-0.4-0.4-0.6
			c-0.2-0.2-0.4-0.3-0.7-0.4c-0.3-0.1-0.6-0.1-0.9-0.1c-0.4,0-0.7,0.1-1,0.2c-0.3,0.1-0.6,0.3-0.8,0.5c-0.2,0.2-0.4,0.5-0.6,0.8
			c-0.2,0.3-0.3,0.6-0.5,0.9c-0.1,0.3-0.2,0.7-0.3,1.1C84,11.1,84,11.5,84,11.8c0,0.3,0,0.5,0.1,0.8c0,0-0.1,0.1-0.1,0.1
			c-0.2,0.1-0.4,0.2-0.6,0.3c-0.2,0.1-0.4,0.2-0.5,0.2c-0.2,0.1-0.3,0.1-0.4,0.1c-0.1,0-0.2,0-0.2-0.1c0,0-0.1-0.1-0.1-0.2
			c0-0.1,0-0.2,0-0.3c0-0.1,0-0.3,0-0.4c0-0.1,0-0.2,0.1-0.4c0-0.2,0.1-0.4,0.1-0.7c0.1-0.3,0.1-0.6,0.2-1c0.1-0.4,0.1-0.8,0.2-1
			c0.1-0.3,0.1-0.6,0.1-0.8c0-0.2,0-0.4,0-0.6c0-0.1-0.1-0.3-0.2-0.4c-0.2-0.1-0.4-0.1-0.6-0.1c-0.2,0-0.4,0-0.6,0.1
			C81.1,7.5,81,7.6,81,7.7L80.2,12c0,0.2-0.1,0.4-0.2,0.6c-0.1,0.2-0.2,0.3-0.3,0.4c-0.1,0.1-0.2,0.2-0.3,0.3
			c-0.1,0.1-0.2,0.1-0.4,0.1c-0.1,0-0.1,0-0.2-0.1c-0.1,0-0.1-0.1-0.1-0.2c0-0.1-0.1-0.1-0.1-0.2c0-0.1,0-0.2,0-0.3c0,0,0-0.1,0-0.2
			c0-0.2,0.1-0.3,0.1-0.6s0.1-0.6,0.2-1C78.9,10.4,79,10,79,9.7c0.1-0.3,0.1-0.7,0.2-1c0.1-0.3,0.1-0.7,0.2-1c0-0.1-0.1-0.2-0.2-0.3
			c-0.1-0.1-0.3-0.1-0.6-0.1c-0.2,0-0.3,0-0.5,0.1c-0.1,0.1-0.2,0.2-0.3,0.3c-0.1,0.1-0.2,0.3-0.3,0.4c-0.1,0.2-0.1,0.3-0.2,0.5
			c0,0.2-0.1,0.3-0.1,0.4c0,0.1,0,0.2-0.1,0.3c-0.1,1.1-0.3,1.9-0.4,2.4c0,0.1-0.1,0.2-0.1,0.4c-0.2,0.1-0.3,0.3-0.5,0.4
			c-0.1,0.1-0.3,0.2-0.4,0.3c-0.1,0.1-0.3,0.2-0.4,0.2c-0.1,0.1-0.3,0.1-0.4,0.2c-0.1,0-0.2,0.1-0.3,0.1c-0.1,0-0.2,0-0.3-0.1
			c-0.1-0.1-0.1-0.1-0.2-0.3c0-0.1-0.1-0.2-0.1-0.4c0-0.1,0-0.3,0-0.4c0-0.1,0-0.2,0-0.4c0-0.1,0-0.3,0.1-0.4c0-0.1,0.1-0.2,0.1-0.3
			c0-0.1,0.1-0.2,0.1-0.3c0.1-0.3,0.4-1,0.9-1.9c0.3-0.6,0.6-1.2,0.8-1.9c0.2-0.6,0.4-1.3,0.6-1.9C76.9,4.3,77,3.6,77,2.9
			c0-0.2,0-0.4,0-0.6c0-0.3,0-0.6-0.1-0.9c0-0.3-0.1-0.5-0.2-0.7s-0.2-0.4-0.4-0.5S76,0,75.7,0c-0.3,0-0.7,0.1-1,0.3
			c-0.3,0.2-0.6,0.5-0.9,0.9c-0.3,0.4-0.5,0.8-0.8,1.3c-0.2,0.5-0.4,1-0.6,1.6c-0.1,0.6-0.3,1.2-0.4,1.7c-0.1,0.5-0.2,1.1-0.2,1.8
			c-0.4,0-0.8,0.1-1.1,0.3c-0.4,0.1-0.7,0.4-1,0.7c-0.3,0.3-0.6,0.6-0.8,1c0,0,0,0,0,0c-0.1-0.1-0.2-0.2-0.3-0.4
			c-0.3-0.4-0.7-0.7-1.1-1c-0.4-0.3-0.8-0.5-1.2-0.6c-0.4-0.2-0.9-0.2-1.4-0.2c-0.6,0-1.1,0.1-1.6,0.3s-0.9,0.5-1.2,0.9
			c-0.3,0.4-0.6,0.8-0.7,1.3c-0.1,0.3-0.2,0.7-0.2,1.1C61,11,60.8,11,60.6,11c-0.1,0-0.2,0-0.2,0c-0.1,0-0.1-0.1-0.2-0.2
			c-0.1-0.1-0.1-0.2-0.1-0.3c0-0.1-0.1-0.3-0.1-0.5c0-0.1,0-0.2,0-0.4c0-0.2,0.1-0.4,0.1-0.6c0.1-0.3,0.1-0.5,0.1-0.6
			c0-0.2,0-0.3,0-0.4c0-0.1,0-0.2-0.1-0.3c0-0.1-0.1-0.2-0.2-0.2c-0.1-0.1-0.2-0.1-0.2-0.1s-0.2-0.1-0.3-0.1c-0.3,0-0.5,0.1-0.8,0.2
			c-0.2,0.2-0.4,0.3-0.6,0.6c-0.2,0.2-0.3,0.5-0.5,0.8c-0.2,0.3-0.3,0.6-0.4,0.8h-0.1c0-0.3,0-0.6,0-0.9c0-0.4,0-0.6,0-0.8
			c0-0.2,0-0.3,0-0.4c0-0.1,0-0.2-0.1-0.2c0,0-0.1-0.1-0.2-0.1c-0.1,0-0.2,0-0.3,0c-0.1,0-0.2,0-0.3,0c-0.1,0-0.1,0-0.2,0.1
			c-0.1,0-0.1,0.1-0.1,0.2c0,0.1-0.1,0.2-0.1,0.3c-0.1,0.2-0.1,0.4-0.2,0.7c-0.1,0.3-0.1,0.6-0.2,1c-0.1,0.4-0.2,0.8-0.2,1.1
			c-0.1,0.4-0.1,0.7-0.2,1c0,0.3-0.1,0.7-0.1,1c0,0.3,0,0.6,0,0.8c0,0.2,0,0.4,0,0.6c0,0.2,0.1,0.4,0.1,0.5c0.1,0.2,0.2,0.3,0.3,0.4
			c0.1,0.1,0.3,0.1,0.5,0.1c0.1,0,0.2,0,0.3-0.1c0.1,0,0.2-0.1,0.2-0.2c0.1-0.1,0.1-0.2,0.2-0.3c0.1-0.1,0.1-0.3,0.2-0.5l1.4-3.9
			h0.1c0,0.3,0.1,0.7,0.2,1c0.1,0.3,0.2,0.6,0.3,0.9c0.1,0.3,0.3,0.5,0.6,0.6c0.2,0.2,0.6,0.2,0.9,0.2c0.2,0,0.4,0,0.6-0.1
			c0.1,0,0.2-0.1,0.3-0.1c0,0.1,0,0.2,0.1,0.3c0.1,0.4,0.2,0.8,0.5,1.1c0.2,0.3,0.5,0.6,0.8,0.8c0.3,0.2,0.7,0.3,1.2,0.3
			c0.3,0,0.6-0.1,0.9-0.2c0.3-0.1,0.5-0.3,0.8-0.4c0.2-0.2,0.4-0.4,0.6-0.7c0.2-0.3,0.3-0.5,0.5-0.8c0.1-0.3,0.2-0.6,0.3-0.9
			s0.1-0.6,0.1-0.9c0-0.4,0-0.8-0.1-1.1c-0.1-0.3-0.2-0.7-0.3-1l0.1-0.1C66.8,9,67,9.2,67.2,9.4c0.3,0.2,0.5,0.4,0.8,0.7
			c0.1,0.1,0.3,0.2,0.4,0.4c0,0,0,0.1,0,0.1c-0.2,0.3-0.3,0.7-0.4,1c-0.1,0.3-0.1,0.7-0.1,1c0,0.3,0,0.6,0.1,0.9
			c0.1,0.3,0.2,0.6,0.4,0.8c0.2,0.2,0.4,0.4,0.6,0.6c0.2,0.1,0.5,0.2,0.9,0.2c0.2,0,0.5,0,0.7-0.1c0.2-0.1,0.5-0.2,0.7-0.3
			c0.2-0.1,0.5-0.3,0.7-0.5c0.2-0.2,0.4-0.4,0.6-0.6c0.1,0.3,0.3,0.6,0.5,0.8c0.2,0.2,0.3,0.3,0.5,0.4c0.2,0.1,0.3,0.2,0.5,0.2
			c0.1,0,0.3,0.1,0.3,0.1c0.1,0,0.3,0,0.4-0.1c0.2,0,0.3-0.1,0.5-0.2c0.2-0.1,0.3-0.2,0.5-0.3c0.2-0.1,0.3-0.2,0.5-0.3
			c0.1-0.1,0.3-0.2,0.4-0.3c0,0.1,0,0.2,0,0.2c0.1,0.2,0.2,0.4,0.3,0.5c0.1,0.1,0.3,0.2,0.4,0.3c0.2,0.1,0.3,0.1,0.5,0.1
			c0.2,0,0.4,0,0.6-0.1c0.2-0.1,0.4-0.2,0.7-0.4c0.2-0.1,0.4-0.3,0.6-0.5c0.2-0.2,0.4-0.4,0.6-0.7c0.1,0.2,0.1,0.5,0.2,0.6
			c0.1,0.2,0.2,0.4,0.3,0.5c0.1,0.1,0.2,0.2,0.4,0.3c0.1,0.1,0.3,0.1,0.5,0.1c0.2,0,0.4,0,0.6-0.1c0.2-0.1,0.5-0.1,0.7-0.2
			c0.2-0.1,0.5-0.2,0.7-0.3c0.2-0.1,0.5-0.2,0.7-0.4c0.1,0,0.1-0.1,0.2-0.1c0.1,0.1,0.1,0.2,0.2,0.2c0.2,0.3,0.6,0.5,0.9,0.7
			C86,15,86.4,15,86.9,15c0.3,0,0.5,0,0.8-0.1c0.3-0.1,0.5-0.2,0.8-0.3c0.2-0.1,0.5-0.3,0.7-0.5c0.2-0.2,0.4-0.4,0.6-0.5
			c0.4-0.3,0.7-0.7,1-1.2c0.1,0.5,0.2,0.9,0.4,1.3c0.2,0.5,0.5,0.8,0.8,1c0.3,0.2,0.6,0.4,1,0.4c0.2,0,0.4,0,0.6-0.1
			c0.2-0.1,0.5-0.2,0.8-0.3c0.3-0.1,0.7-0.3,1-0.5c0.2-0.1,0.5-0.3,0.8-0.4c0,0,0,0,0,0c0,0.3,0.1,0.5,0.2,0.7
			c0.1,0.2,0.3,0.3,0.5,0.5c0.2,0.1,0.4,0.2,0.7,0.3c0.3,0.1,0.6,0.1,0.9,0.1c0.4,0,0.9,0,1.4-0.1c0.5-0.1,1-0.2,1.4-0.4
			c0.5-0.2,0.9-0.3,1.3-0.6c0.4-0.2,0.8-0.4,1.1-0.7l0-1.8C103.6,11.8,103.4,11.9,103.1,12.1z M92.8,5.3C92.9,4.8,93,4.4,93.2,4
			c0.1-0.4,0.3-0.7,0.4-0.9c0.1-0.2,0.3-0.4,0.4-0.4c0.1,0,0.2,0,0.2,0.1c0.1,0,0.1,0.1,0.1,0.2c0,0.1,0,0.1,0.1,0.2
			c0,0.1,0,0.1,0,0.2c0,0.2,0,0.4-0.1,0.6c-0.1,0.3-0.2,0.5-0.3,0.8c-0.1,0.3-0.3,0.6-0.5,0.9C93.3,6,93.1,6.3,93,6.6
			c-0.1,0-0.2,0-0.2,0c-0.1,0-0.2,0-0.2,0C92.6,6.1,92.7,5.7,92.8,5.3z M65.3,11.6c-0.1,0.4-0.2,0.7-0.3,1c-0.1,0.3-0.3,0.5-0.4,0.7
			c-0.2,0.2-0.3,0.3-0.5,0.3c-0.2,0-0.4,0-0.5-0.1c-0.1-0.1-0.3-0.2-0.4-0.3c-0.1-0.1-0.2-0.3-0.2-0.5c0-0.2-0.1-0.4-0.1-0.6
			c0-0.4,0-0.8,0.1-1.2c0.1-0.3,0.2-0.7,0.3-0.9c0.1-0.3,0.3-0.5,0.5-0.7c0.2-0.2,0.4-0.3,0.6-0.3c0.2,0,0.3,0,0.4,0.1
			c0.1,0.1,0.2,0.2,0.3,0.4c0.1,0.2,0.1,0.3,0.2,0.5c0,0.2,0.1,0.4,0.1,0.7C65.5,10.9,65.4,11.2,65.3,11.6z M71.6,12.6
			c-0.1,0.1-0.1,0.2-0.2,0.3c-0.1,0.1-0.2,0.2-0.2,0.2c-0.1,0.1-0.2,0.1-0.3,0.2c-0.1,0-0.2,0.1-0.3,0.1c-0.2,0-0.3,0-0.4-0.1
			c-0.1,0-0.2-0.1-0.3-0.2c-0.1-0.1-0.1-0.1-0.1-0.2c0-0.1,0-0.2,0-0.2c0-0.3,0-0.6,0.1-0.9c0.1-0.3,0.2-0.7,0.4-1.2
			c0.2-0.5,0.4-0.8,0.7-1.1c0.3-0.3,0.6-0.5,0.9-0.7c0,0,0,0,0,0.2c0,0.1,0,0.3,0,0.4c0,0.2,0,0.4,0,0.6c0,0.2,0,0.5,0,0.8
			c0,0.3,0,0.6,0,0.7c0,0.2,0,0.3,0,0.4C71.9,12.1,71.8,12.4,71.6,12.6z M73.8,9.2L73.8,9.2c0-0.2,0-0.3,0-0.4c0-0.1,0-0.3,0-0.5
			c0-0.2,0-0.4,0-0.7c0-0.2,0-0.5,0.1-0.8c0-0.1,0-0.3,0.1-0.6c0-0.3,0.1-0.6,0.1-1c0-0.4,0.1-0.8,0.2-1.2c0.1-0.4,0.2-0.8,0.3-1.1
			c0.1-0.3,0.2-0.6,0.3-0.8c0.1-0.2,0.3-0.3,0.5-0.3c0.1,0,0.2,0.1,0.2,0.2c0.1,0.1,0.1,0.3,0.1,0.6c0,0.2,0,0.5,0,0.9
			c0,0.3-0.1,0.6-0.1,0.9c-0.1,0.3-0.2,0.6-0.2,0.9c-0.1,0.3-0.2,0.6-0.3,1c-0.1,0.3-0.2,0.6-0.3,0.9C74.4,7.8,74.1,8.5,73.8,9.2z
			 M99.3,13.1c0,0.2-0.1,0.3-0.2,0.4s-0.2,0.2-0.3,0.3c-0.1,0.1-0.3,0.1-0.5,0.1c-0.2,0-0.3,0-0.4-0.1c-0.1-0.1-0.2-0.2-0.3-0.3
			c-0.1-0.1-0.2-0.2-0.3-0.3c-0.1-0.1-0.1-0.1-0.2-0.1l2.2-2.3c0,0.1,0.1,0.2,0.1,0.3c0,0.1,0,0.3,0,0.5s0,0.4,0,0.6
			c0,0.1,0,0.3,0,0.4C99.4,12.8,99.3,12.9,99.3,13.1z"/>
		<path class="st2" d="M137.5,11.6c-0.3,0.3-0.5,0.6-0.8,0.8c-0.1,0.1-0.2,0.2-0.3,0.3c-0.1,0.1-0.2,0.2-0.4,0.3
			c-0.1,0.1-0.2,0.1-0.4,0.2c-0.1,0-0.2,0.1-0.3,0.1c-0.1,0-0.2-0.1-0.3-0.3c-0.1-0.2-0.1-0.4-0.1-0.7c0-0.4,0-0.7,0.1-1
			c0-0.3,0.1-0.7,0.2-1.1c0.1-0.4,0.1-0.8,0.2-1.1c0-0.3,0.1-0.7,0.1-1c0-0.2-0.1-0.4-0.3-0.5c-0.2-0.1-0.4-0.2-0.6-0.2
			c-0.2,0-0.4,0.1-0.6,0.2c-0.2,0.1-0.3,0.3-0.5,0.5c-0.2,0.2-0.3,0.5-0.5,0.8c-0.2,0.3-0.4,0.6-0.5,0.8c-0.2,0.3-0.3,0.5-0.4,0.8
			c-0.1,0.3-0.2,0.4-0.2,0.4l-0.1-0.1c0,0,0,0,0-0.1c0-0.1,0-0.2,0-0.2c0.1-0.3,0.2-0.6,0.2-0.8c0-0.2,0.1-0.4,0.1-0.5
			c0-0.1,0.1-0.3,0.1-0.5c0-0.2,0-0.4,0-0.6c0-0.2-0.1-0.4-0.2-0.5c-0.2-0.1-0.3-0.2-0.6-0.2c-0.2,0-0.4,0.1-0.6,0.2
			c-0.2,0.1-0.3,0.3-0.5,0.5c-0.2,0.2-0.3,0.5-0.5,0.7c-0.2,0.3-0.3,0.6-0.5,0.8c-0.1,0.3-0.3,0.5-0.4,0.8c-0.1,0.3-0.2,0.4-0.2,0.4
			l-0.1-0.1c0.1-0.4,0.2-0.8,0.2-1.2c0,0,0-0.1,0.1-0.4c0-0.1,0-0.3,0-0.4c0-0.1,0-0.3,0-0.4c0-0.1,0-0.2,0-0.3c0-0.2,0-0.3,0-0.4
			c0-0.1,0-0.2-0.1-0.2c-0.1-0.1-0.1-0.1-0.3-0.1c-0.1,0-0.3,0-0.5,0c-0.1,0-0.2,0-0.3,0c-0.1,0-0.2,0.1-0.2,0.1
			c-0.1,0.1-0.1,0.1-0.2,0.2c0,0.1-0.1,0.2-0.1,0.4c-0.1,0.2-0.1,0.4-0.2,0.6c-0.1,0.2-0.1,0.4-0.1,0.7c-0.1-0.1-0.1-0.1-0.2-0.2
			c-0.3-0.4-0.7-0.7-1.1-1s-0.8-0.5-1.2-0.6c-0.4-0.2-0.9-0.2-1.4-0.2c-0.6,0-1.1,0.1-1.6,0.3c-0.5,0.2-0.9,0.5-1.2,0.9
			c-0.3,0.4-0.6,0.8-0.7,1.3c-0.1,0.3-0.2,0.7-0.2,1.1c-0.2,0.1-0.4,0.1-0.6,0.1c-0.1,0-0.2,0-0.2,0c-0.1,0-0.1-0.1-0.2-0.2
			c-0.1-0.1-0.1-0.2-0.1-0.3c0-0.1-0.1-0.3-0.1-0.5c0-0.1,0-0.2,0-0.4c0-0.2,0.1-0.4,0.1-0.6c0.1-0.3,0.1-0.5,0.1-0.6
			c0-0.2,0-0.3,0-0.4c0-0.1,0-0.2-0.1-0.3c0-0.1-0.1-0.2-0.2-0.2c-0.1-0.1-0.2-0.1-0.2-0.1c-0.1,0-0.2-0.1-0.3-0.1
			c-0.3,0-0.5,0.1-0.8,0.2c-0.2,0.2-0.4,0.3-0.6,0.6c-0.2,0.2-0.3,0.5-0.5,0.8c-0.2,0.3-0.3,0.6-0.4,0.8h-0.1c0-0.3,0-0.6,0-0.9
			c0-0.4,0-0.6,0-0.8c0-0.2,0-0.3,0-0.4c0-0.1,0-0.2-0.1-0.2c0,0-0.1-0.1-0.2-0.1c-0.1,0-0.2,0-0.3,0c-0.1,0-0.2,0-0.3,0
			c-0.1,0-0.1,0-0.2,0.1c-0.1,0-0.1,0.1-0.1,0.2c0,0.1-0.1,0.2-0.1,0.3c-0.1,0.2-0.1,0.4-0.2,0.7c-0.1,0.2-0.1,0.6-0.2,0.9
			c-0.2,0.2-0.4,0.3-0.7,0.5c-0.3,0.2-0.6,0.3-1,0.4c-0.4,0.1-0.9,0.2-1.4,0.2c-0.1,0-0.1,0-0.1,0c0,0-0.1,0-0.1,0c0,0-0.1,0-0.1,0
			c0,0-0.1,0-0.2,0c-0.1,0-0.1,0-0.2,0c-0.1,0-0.1,0-0.2,0.1l0-0.1c0.3-0.4,0.7-0.9,1-1.3c0.3-0.5,0.6-1,0.9-1.4
			c0.3-0.5,0.6-1,0.8-1.5c0.2-0.5,0.5-1,0.6-1.4c0.2-0.5,0.3-0.9,0.4-1.3c0.1-0.4,0.1-0.8,0.1-1.1c0-0.3-0.1-0.6-0.2-0.8
			c-0.1-0.2-0.2-0.4-0.4-0.5c-0.2-0.1-0.3-0.2-0.5-0.3c-0.2-0.1-0.4-0.1-0.6-0.1c-0.5,0-0.9,0.1-1.3,0.4c-0.4,0.3-0.7,0.6-1,1.1
			c-0.3,0.5-0.6,1-0.8,1.6c-0.3,0.6-0.5,1.3-0.7,2c-0.2,0.7-0.4,1.4-0.5,2.2c-0.1,0.7-0.3,1.5-0.4,2.2c-0.1,0.7-0.2,1.4-0.2,2
			c-0.1,0.6-0.1,1.2-0.2,1.7c0,0.5-0.1,0.9-0.1,1.2c0,0.3,0,0.5,0,0.5c0,0.3,0,0.6,0,1c0,0.3,0.1,0.7,0.1,1c0.1,0.3,0.1,0.6,0.2,0.9
			c0.1,0.3,0.2,0.6,0.4,0.8c0.2,0.2,0.3,0.4,0.5,0.5c0.2,0.1,0.5,0.2,0.7,0.2c0.3,0,0.6-0.1,0.8-0.2c0.2-0.1,0.4-0.3,0.6-0.5
			c0.2-0.2,0.3-0.4,0.5-0.7c0.1-0.3,0.3-0.5,0.3-0.8c0.1-0.3,0.2-0.5,0.2-0.8c0.1-0.3,0.1-0.5,0.1-0.7c0-0.2,0.1-0.4,0.1-0.6
			c0-0.2,0-0.3,0-0.3c0-0.4-0.1-0.8-0.2-1.2c-0.1-0.4-0.2-0.7-0.4-1.1c-0.2-0.4-0.3-0.7-0.5-1.1c0.4,0,0.7-0.1,1.1-0.1
			c0.3-0.1,0.7-0.1,1-0.2c0.2-0.1,0.5-0.2,0.7-0.3c0,0.1,0,0.2,0,0.3c0,0.3-0.1,0.7-0.1,1c0,0.3,0,0.6,0,0.8c0,0.2,0,0.4,0,0.6
			c0,0.2,0.1,0.4,0.1,0.5c0.1,0.2,0.2,0.3,0.3,0.4c0.1,0.1,0.3,0.1,0.5,0.1c0.1,0,0.2,0,0.3-0.1c0.1,0,0.2-0.1,0.2-0.2
			c0.1-0.1,0.1-0.2,0.2-0.3c0.1-0.1,0.1-0.3,0.2-0.5l1.4-3.9h0.1c0,0.3,0.1,0.7,0.2,1c0.1,0.3,0.2,0.6,0.3,0.9
			c0.1,0.3,0.3,0.5,0.6,0.6c0.2,0.2,0.6,0.2,0.9,0.2c0.2,0,0.4,0,0.6-0.1c0.1,0,0.2-0.1,0.3-0.1c0,0.1,0,0.2,0.1,0.3
			c0.1,0.4,0.2,0.8,0.5,1.1c0.2,0.3,0.5,0.6,0.8,0.8c0.3,0.2,0.7,0.3,1.2,0.3c0.3,0,0.6-0.1,0.9-0.2c0.3-0.1,0.5-0.3,0.8-0.4
			c0.2-0.2,0.4-0.4,0.6-0.7c0.2-0.3,0.3-0.5,0.5-0.8c0.1-0.3,0.2-0.6,0.3-0.9c0.1-0.3,0.1-0.6,0.1-0.9c0-0.4,0-0.8-0.1-1.1
			c-0.1-0.3-0.2-0.7-0.3-1l0.1-0.1c0.2,0.1,0.4,0.3,0.7,0.5c0.3,0.2,0.5,0.4,0.8,0.7c0.2,0.2,0.3,0.3,0.5,0.5c0,0,0,0.1,0,0.1
			c-0.1,0.4-0.1,0.8-0.2,1.1c0,0.3-0.1,0.6-0.1,0.9s0,0.5,0,0.8c0,0.2,0,0.4,0,0.6c0,0.2,0.1,0.4,0.1,0.5c0.1,0.1,0.2,0.3,0.3,0.4
			c0.1,0.1,0.3,0.1,0.5,0.1c0.2,0,0.3,0,0.5-0.1c0.1-0.1,0.3-0.2,0.4-0.4c0.4-0.7,0.7-1.3,0.9-1.8c0.2-0.5,0.4-0.9,0.6-1.2
			c0.1-0.3,0.3-0.5,0.3-0.7c0.1-0.2,0.2-0.3,0.2-0.4h0.1c-0.1,0.5-0.2,0.9-0.2,1.4c0,0.2-0.1,0.4-0.1,0.5c0,0.2,0,0.4-0.1,0.5
			c0,0.2,0,0.3,0,0.4c0,0.1,0,0.2,0,0.3c0,0.2,0,0.3,0,0.5c0,0.2,0.1,0.3,0.1,0.5c0.1,0.1,0.1,0.3,0.2,0.3c0.1,0.1,0.2,0.1,0.4,0.1
			c0.2,0,0.4,0,0.6-0.1c0.2-0.1,0.3-0.2,0.5-0.4l1.6-4h0.1c0,0.4-0.1,0.8-0.1,1.1c0,0.4,0,0.7,0,1.1c0,0.3,0,0.7,0.1,1
			c0,0.3,0.1,0.5,0.2,0.8c0.1,0.2,0.2,0.4,0.3,0.5c0.1,0.1,0.3,0.2,0.5,0.2c0.4,0,0.7,0,1-0.1c0.3-0.1,0.6-0.2,0.8-0.4
			c0.3-0.2,0.5-0.3,0.7-0.5c0.2-0.2,0.5-0.4,0.7-0.6L137.5,11.6z M109.6,7.7c0-0.3,0.1-0.7,0.2-1.2c0.1-0.4,0.2-1,0.4-1.5
			c0.2-0.6,0.4-1.3,0.8-2c0.2-0.4,0.3-0.7,0.4-0.8c0.1-0.1,0.3-0.2,0.6-0.2c0.2,0,0.3,0.1,0.4,0.2c0.1,0.1,0.1,0.3,0.1,0.6
			c0,0.2-0.1,0.5-0.3,1c-0.2,0.5-0.4,0.9-0.7,1.4c-0.3,0.5-0.6,1-0.9,1.6c-0.4,0.6-0.7,1.2-1,1.8C109.5,8.4,109.5,8,109.6,7.7z
			 M109.9,16.3c0,0.3-0.1,0.6-0.1,0.8c-0.1,0.2-0.1,0.5-0.2,0.6c-0.1,0.2-0.3,0.2-0.4,0.2c-0.1,0-0.1,0-0.2-0.1
			c-0.1-0.1-0.1-0.2-0.1-0.5c0-0.2-0.1-0.6-0.1-1c0-0.5,0-1.1,0-1.8c0-0.1,0-0.3,0-0.5c0-0.2,0-0.4,0-0.6c0-0.2,0-0.5,0.1-0.8
			c0-0.3,0-0.6,0.1-0.8c0-0.2,0-0.3,0.1-0.4c0-0.1,0.1-0.2,0.1-0.2c0.1,0,0.1,0.1,0.2,0.2c0.1,0.1,0.2,0.3,0.3,0.5
			c0.1,0.2,0.2,0.5,0.3,0.9c0.1,0.4,0.1,0.7,0.1,1c0,0.3,0,0.6,0,0.9c0,0.3,0,0.5,0,0.7C109.9,15.7,109.9,16,109.9,16.3z
			 M123.6,11.6c-0.1,0.4-0.2,0.7-0.3,1c-0.1,0.3-0.3,0.5-0.4,0.7c-0.2,0.2-0.3,0.3-0.5,0.3c-0.2,0-0.4,0-0.5-0.1
			c-0.1-0.1-0.3-0.2-0.4-0.3c-0.1-0.1-0.2-0.3-0.2-0.5c0-0.2-0.1-0.4-0.1-0.6c0-0.4,0-0.8,0.1-1.2c0.1-0.3,0.2-0.7,0.3-0.9
			c0.1-0.3,0.3-0.5,0.5-0.7c0.2-0.2,0.4-0.3,0.6-0.3c0.2,0,0.3,0,0.4,0.1c0.1,0.1,0.2,0.2,0.3,0.4c0.1,0.2,0.1,0.3,0.2,0.5
			c0,0.2,0.1,0.4,0.1,0.7C123.8,10.9,123.7,11.2,123.6,11.6z"/>
	</g>
	<g>
		<path class="st2" d="M47.8,38.6c-0.9-0.3-1.7-0.7-2.4-1.2c-0.7-0.5-1.2-1.3-1.6-2.1c-0.4-0.9-0.6-1.9-0.6-3V21.6
			c0-0.5,0.2-0.9,0.5-1.1c0.3-0.3,0.7-0.4,1.1-0.4c0.4,0,0.8,0.1,1.1,0.4c0.3,0.3,0.5,0.7,0.5,1.1v10.6c0,0.7,0.1,1.4,0.4,1.9
			c0.2,0.6,0.6,1,1,1.3c0.4,0.3,0.9,0.6,1.4,0.8c0.5,0.2,1,0.3,1.6,0.3c0.6,0,1.1-0.1,1.6-0.3c0.5-0.2,1-0.4,1.4-0.8
			c0.4-0.3,0.7-0.8,1-1.3c0.2-0.6,0.4-1.2,0.4-1.9V21.6c0-0.5,0.2-0.9,0.5-1.1c0.3-0.3,0.7-0.4,1.1-0.4c0.4,0,0.8,0.1,1.1,0.4
			c0.3,0.3,0.5,0.7,0.5,1.1v10.7c0,1.1-0.2,2.1-0.6,3c-0.4,0.9-1,1.6-1.6,2.1c-0.7,0.5-1.5,1-2.4,1.2c-0.9,0.3-1.9,0.4-2.9,0.4
			C49.6,39.1,48.7,38.9,47.8,38.6z"/>
		<path class="st2" d="M66.2,36.9C66,36.8,66,36.6,66,36.4c0-0.2,0-0.4,0.1-0.6c0.1-0.2,0.2-0.4,0.3-0.6c0.1-0.2,0.3-0.3,0.4-0.4
			c0.2-0.1,0.3-0.2,0.5-0.2c0.1,0,0.1,0,0.2,0c0.1,0,0.1,0,0.2,0.1c1.6,1.1,3.3,1.6,5.2,1.6c1.2,0,2.2-0.2,2.9-0.7
			c0.7-0.4,1.1-1.1,1.1-2c0-0.8-0.2-1.3-0.6-1.7c-0.4-0.4-1.1-0.8-2-1.1l-4.1-1.4c-1.4-0.5-2.5-1.1-3.1-1.8c-0.7-0.7-1-1.7-1-3
			c0-1.6,0.6-2.8,1.9-3.8c1.3-0.9,3-1.4,5-1.4c1.3,0,2.5,0.2,3.6,0.6c1.1,0.4,2,0.8,2.7,1.3c0.1,0.1,0.2,0.2,0.3,0.3
			c0.1,0.1,0.1,0.3,0.1,0.4c0,0.3-0.1,0.6-0.4,0.9c-0.2,0.3-0.5,0.4-0.8,0.4c-0.2,0-0.4-0.1-0.6-0.2c-1.5-0.8-3-1.3-4.5-1.3
			c-0.8,0-1.5,0.1-2,0.2c-0.6,0.1-1.1,0.4-1.4,0.8c-0.4,0.4-0.6,0.9-0.6,1.5c0,0.6,0.2,1,0.5,1.4c0.3,0.4,0.8,0.7,1.5,0.9l4.1,1.3
			c0.6,0.2,1.2,0.4,1.7,0.6c0.5,0.2,0.9,0.5,1.3,0.8c0.4,0.3,0.7,0.6,1,1c0.3,0.4,0.5,0.8,0.6,1.3c0.1,0.5,0.2,1,0.2,1.6
			c0,1.1-0.3,2.1-0.9,3c-0.6,0.8-1.4,1.5-2.5,1.9c-1.1,0.4-2.4,0.6-3.8,0.6C70.1,39.1,67.8,38.3,66.2,36.9z"/>
		<path class="st2" d="M99.1,34.3h-8.6l-1.3,3.5c-0.1,0.3-0.3,0.6-0.6,0.8c-0.3,0.2-0.5,0.3-0.9,0.3c-0.4,0-0.8-0.1-1.1-0.4
			c-0.3-0.3-0.5-0.6-0.5-1c0-0.2,0-0.3,0.1-0.5l6-15c0.3-0.8,0.7-1.3,1.1-1.6c0.4-0.3,0.9-0.4,1.5-0.4c0.4,0,0.7,0,1,0.1
			c0.3,0.1,0.5,0.3,0.8,0.6c0.3,0.3,0.5,0.7,0.8,1.3l6,15c0.1,0.2,0.1,0.3,0.1,0.5c0,0.4-0.2,0.7-0.5,1c-0.3,0.3-0.7,0.4-1.1,0.4
			c-0.3,0-0.6-0.1-0.9-0.3c-0.3-0.2-0.5-0.4-0.6-0.8L99.1,34.3z M94.8,23.1l-3.4,8.9h6.8L94.8,23.1z"/>
		<path class="st2" d="M122.8,37.6c-1.3-1-2-2.3-2-4.1c0-0.7,0.1-1.4,0.4-2c0.2-0.6,0.6-1.1,1-1.6c0.5-0.5,0.9-0.9,1.4-1.2
			c0.5-0.3,1.1-0.7,1.8-1.1c-0.8-0.8-1.4-1.6-1.8-2.3c-0.4-0.7-0.6-1.5-0.6-2.3c0-0.6,0.1-1.1,0.4-1.6c0.3-0.5,0.7-0.9,1.2-1.2
			c0.5-0.3,1-0.5,1.6-0.7c0.6-0.2,1.2-0.2,1.9-0.2c0,0,0,0,0,0c0,0,0,0,0,0c1.4,0,2.5,0.3,3.3,0.9c0.8,0.6,1.2,1.5,1.2,2.7
			c0,1-0.3,1.9-0.9,2.7c-0.6,0.8-1.4,1.6-2.5,2.4l4.7,5c0.8-1.7,1.3-3.5,1.4-5.5c0.1-0.6,0.5-0.8,1.2-0.8c0.3,0,0.6,0.1,0.9,0.3
			c0.2,0.2,0.4,0.5,0.4,0.8c0,0.9-0.2,2-0.5,3.4c-0.3,1.4-0.9,2.6-1.5,3.7l1.9,2c0.2,0.2,0.3,0.5,0.3,0.7c0,0.4-0.2,0.7-0.5,1
			c-0.3,0.3-0.7,0.5-1,0.5c-0.3,0-0.5-0.1-0.8-0.4l-1.9-2c-0.8,0.8-1.6,1.5-2.6,1.9c-0.9,0.4-2,0.7-3.3,0.7
			C125.9,39.1,124.1,38.6,122.8,37.6z M130.4,36.3c0.7-0.3,1.3-0.8,1.8-1.4l-5.1-5.5c-2.2,1.2-3.3,2.4-3.3,3.8c0,1.1,0.4,2,1.3,2.7
			c0.8,0.6,1.8,1,3,1C128.9,36.8,129.7,36.7,130.4,36.3z M128.2,25.8c0.3-0.2,0.5-0.4,0.6-0.5c0.1-0.1,0.3-0.3,0.5-0.5
			c0.2-0.2,0.4-0.4,0.5-0.6c0.1-0.2,0.2-0.4,0.3-0.6c0.1-0.2,0.1-0.5,0.1-0.7c0-0.6-0.2-1-0.6-1.3c-0.4-0.3-0.9-0.5-1.5-0.5
			c-0.6,0-1.1,0.2-1.6,0.5c-0.4,0.3-0.6,0.7-0.6,1.3c0,1,0.7,2.1,2,3.4C127.8,26.2,128,26,128.2,25.8z"/>
		<path class="st2" d="M162,38.6c-0.9-0.3-1.7-0.7-2.4-1.2c-0.7-0.5-1.2-1.3-1.6-2.1c-0.4-0.9-0.6-1.9-0.6-3V21.6
			c0-0.5,0.2-0.9,0.5-1.1c0.3-0.3,0.7-0.4,1.1-0.4c0.4,0,0.8,0.1,1.1,0.4c0.3,0.3,0.5,0.7,0.5,1.1v10.6c0,0.7,0.1,1.4,0.4,1.9
			c0.2,0.6,0.6,1,1,1.3c0.4,0.3,0.9,0.6,1.4,0.8c0.5,0.2,1,0.3,1.6,0.3c0.6,0,1.1-0.1,1.6-0.3c0.5-0.2,1-0.4,1.4-0.8
			c0.4-0.3,0.7-0.8,1-1.3c0.2-0.6,0.4-1.2,0.4-1.9V21.6c0-0.5,0.2-0.9,0.5-1.1c0.3-0.3,0.7-0.4,1.1-0.4c0.4,0,0.8,0.1,1.1,0.4
			c0.3,0.3,0.5,0.7,0.5,1.1v10.7c0,1.1-0.2,2.1-0.6,3c-0.4,0.9-1,1.6-1.6,2.1c-0.7,0.5-1.5,1-2.4,1.2c-0.9,0.3-1.9,0.4-2.9,0.4
			C163.8,39.1,162.9,38.9,162,38.6z"/>
		<path class="st2" d="M181.4,38.4c-0.3-0.3-0.5-0.6-0.5-1.1V21.7c0-0.5,0.2-0.9,0.5-1.1c0.3-0.3,0.7-0.4,1.1-0.4
			c0.4,0,0.8,0.1,1.1,0.4c0.3,0.3,0.5,0.7,0.5,1.1v7l7-7.8c0.4-0.4,0.8-0.7,1.2-0.7c0.4,0,0.7,0.1,1,0.4c0.3,0.3,0.5,0.6,0.5,1
			c0,0.3-0.1,0.6-0.3,0.8l-6.1,6.6l6.8,7.5c0.2,0.2,0.3,0.5,0.3,0.9c0,0.4-0.2,0.8-0.5,1c-0.3,0.3-0.7,0.4-1.1,0.4
			c-0.4,0-0.9-0.2-1.3-0.7l-7.5-8.5v7.7c0,0.5-0.2,0.8-0.5,1.1c-0.3,0.3-0.7,0.4-1.1,0.4C182.1,38.8,181.7,38.6,181.4,38.4z"/>
	</g>
	<rect x="43.1" y="42.7" class="st0" width="151.4" height="0.3"/>
	<rect x="142.5" y="15" class="st0" width="52" height="0.3"/>
</g>
</svg>
